<?xml version="1.0" encoding="utf-8"?>
<!-- Generator: Adobe Illustrator 17.1.0, SVG Export Plug-In . SVG Version: 6.00 Build 0)  -->
<!DOCTYPE svg PUBLIC "-//W3C//DTD SVG 1.1//EN" "http://www.w3.org/Graphics/SVG/1.1/DTD/svg11.dtd">
<svg version="1.1" id="Ebene_1" xmlns="http://www.w3.org/2000/svg" xmlns:xlink="http://www.w3.org/1999/xlink" x="0px" y="0px"
	 viewBox="0 0 1050 100" enable-background="new 0 0 1050 100" xml:space="preserve">
<line fill="none" stroke="#000000" stroke-miterlimit="10" x1="0" y1="100" x2="100.4" y2="-0.4"/>
<line fill="none" stroke="#000000" stroke-miterlimit="10" x1="9.9" y1="100" x2="110.3" y2="-0.4"/>
<line fill="none" stroke="#000000" stroke-miterlimit="10" x1="9.9" y1="100" x2="110.3" y2="-0.4"/>
<line fill="none" stroke="#000000" stroke-miterlimit="10" x1="19.9" y1="100" x2="120.2" y2="-0.4"/>
<line fill="none" stroke="#000000" stroke-miterlimit="10" x1="19.9" y1="100" x2="120.2" y2="-0.4"/>
<line fill="none" stroke="#000000" stroke-miterlimit="10" x1="29.8" y1="100" x2="130.1" y2="-0.4"/>
<line fill="none" stroke="#000000" stroke-miterlimit="10" x1="29.8" y1="100" x2="130.1" y2="-0.4"/>
<line fill="none" stroke="#000000" stroke-miterlimit="10" x1="39.7" y1="100" x2="140.1" y2="-0.4"/>
<line fill="none" stroke="#000000" stroke-miterlimit="10" x1="39.7" y1="100" x2="140.1" y2="-0.4"/>
<line fill="none" stroke="#000000" stroke-miterlimit="10" x1="49.6" y1="100" x2="150" y2="-0.4"/>
<line fill="none" stroke="#000000" stroke-miterlimit="10" x1="49.6" y1="100" x2="150" y2="-0.4"/>
<line fill="none" stroke="#000000" stroke-miterlimit="10" x1="59.6" y1="100" x2="159.9" y2="-0.4"/>
<line fill="none" stroke="#000000" stroke-miterlimit="10" x1="59.6" y1="100" x2="159.9" y2="-0.4"/>
<line fill="none" stroke="#000000" stroke-miterlimit="10" x1="69.5" y1="100" x2="169.9" y2="-0.4"/>
<line fill="none" stroke="#000000" stroke-miterlimit="10" x1="69.5" y1="100" x2="169.9" y2="-0.4"/>
<line fill="none" stroke="#000000" stroke-miterlimit="10" x1="79.4" y1="100" x2="179.8" y2="-0.4"/>
<line fill="none" stroke="#000000" stroke-miterlimit="10" x1="80" y1="100" x2="180.3" y2="-0.4"/>
<line fill="none" stroke="#000000" stroke-miterlimit="10" x1="89.9" y1="100" x2="190.2" y2="-0.4"/>
<line fill="none" stroke="#000000" stroke-miterlimit="10" x1="89.9" y1="100" x2="190.2" y2="-0.4"/>
<line fill="none" stroke="#000000" stroke-miterlimit="10" x1="99.8" y1="100" x2="200.2" y2="-0.4"/>
<line fill="none" stroke="#000000" stroke-miterlimit="10" x1="99.8" y1="100" x2="200.2" y2="-0.4"/>
<line fill="none" stroke="#000000" stroke-miterlimit="10" x1="109.8" y1="100" x2="210.1" y2="-0.4"/>
<line fill="none" stroke="#000000" stroke-miterlimit="10" x1="109.8" y1="100" x2="210.1" y2="-0.4"/>
<line fill="none" stroke="#000000" stroke-miterlimit="10" x1="119.7" y1="100" x2="220" y2="-0.4"/>
<line fill="none" stroke="#000000" stroke-miterlimit="10" x1="119.7" y1="100" x2="220" y2="-0.4"/>
<line fill="none" stroke="#000000" stroke-miterlimit="10" x1="129.6" y1="100" x2="230" y2="-0.4"/>
<line fill="none" stroke="#000000" stroke-miterlimit="10" x1="129.6" y1="100" x2="230" y2="-0.4"/>
<line fill="none" stroke="#000000" stroke-miterlimit="10" x1="139.5" y1="100" x2="239.9" y2="-0.4"/>
<line fill="none" stroke="#000000" stroke-miterlimit="10" x1="139.5" y1="100" x2="239.9" y2="-0.4"/>
<line fill="none" stroke="#000000" stroke-miterlimit="10" x1="149.5" y1="100" x2="249.8" y2="-0.4"/>
<line fill="none" stroke="#000000" stroke-miterlimit="10" x1="149.5" y1="100" x2="249.8" y2="-0.4"/>
<line fill="none" stroke="#000000" stroke-miterlimit="10" x1="159.4" y1="100" x2="259.8" y2="-0.4"/>
<line fill="none" stroke="#000000" stroke-miterlimit="10" x1="159.9" y1="100" x2="260.3" y2="-0.4"/>
<line fill="none" stroke="#000000" stroke-miterlimit="10" x1="169.9" y1="100" x2="270.2" y2="-0.4"/>
<line fill="none" stroke="#000000" stroke-miterlimit="10" x1="169.9" y1="100" x2="270.2" y2="-0.4"/>
<line fill="none" stroke="#000000" stroke-miterlimit="10" x1="179.8" y1="100" x2="280.1" y2="-0.4"/>
<line fill="none" stroke="#000000" stroke-miterlimit="10" x1="179.8" y1="100" x2="280.1" y2="-0.4"/>
<line fill="none" stroke="#000000" stroke-miterlimit="10" x1="189.7" y1="100" x2="290.1" y2="-0.4"/>
<line fill="none" stroke="#000000" stroke-miterlimit="10" x1="189.7" y1="100" x2="290.1" y2="-0.4"/>
<line fill="none" stroke="#000000" stroke-miterlimit="10" x1="199.6" y1="100" x2="300" y2="-0.4"/>
<line fill="none" stroke="#000000" stroke-miterlimit="10" x1="199.6" y1="100" x2="300" y2="-0.4"/>
<line fill="none" stroke="#000000" stroke-miterlimit="10" x1="209.6" y1="100" x2="309.9" y2="-0.4"/>
<line fill="none" stroke="#000000" stroke-miterlimit="10" x1="209.6" y1="100" x2="309.9" y2="-0.4"/>
<line fill="none" stroke="#000000" stroke-miterlimit="10" x1="219.5" y1="100" x2="319.9" y2="-0.4"/>
<line fill="none" stroke="#000000" stroke-miterlimit="10" x1="219.5" y1="100" x2="319.9" y2="-0.4"/>
<line fill="none" stroke="#000000" stroke-miterlimit="10" x1="229.4" y1="100" x2="329.8" y2="-0.4"/>
<line fill="none" stroke="#000000" stroke-miterlimit="10" x1="229.4" y1="100" x2="329.8" y2="-0.4"/>
<line fill="none" stroke="#000000" stroke-miterlimit="10" x1="239.4" y1="100" x2="339.7" y2="-0.4"/>
<line fill="none" stroke="#000000" stroke-miterlimit="10" x1="239.9" y1="100" x2="340.2" y2="-0.4"/>
<line fill="none" stroke="#000000" stroke-miterlimit="10" x1="249.8" y1="100" x2="350.2" y2="-0.4"/>
<line fill="none" stroke="#000000" stroke-miterlimit="10" x1="249.8" y1="100" x2="350.2" y2="-0.4"/>
<line fill="none" stroke="#000000" stroke-miterlimit="10" x1="259.8" y1="100" x2="360.1" y2="-0.4"/>
<line fill="none" stroke="#000000" stroke-miterlimit="10" x1="259.8" y1="100" x2="360.1" y2="-0.4"/>
<line fill="none" stroke="#000000" stroke-miterlimit="10" x1="269.7" y1="100" x2="370" y2="-0.4"/>
<line fill="none" stroke="#000000" stroke-miterlimit="10" x1="269.7" y1="100" x2="370" y2="-0.4"/>
<line fill="none" stroke="#000000" stroke-miterlimit="10" x1="279.6" y1="100" x2="380" y2="-0.4"/>
<line fill="none" stroke="#000000" stroke-miterlimit="10" x1="279.6" y1="100" x2="380" y2="-0.4"/>
<line fill="none" stroke="#000000" stroke-miterlimit="10" x1="289.5" y1="100" x2="389.9" y2="-0.4"/>
<line fill="none" stroke="#000000" stroke-miterlimit="10" x1="289.5" y1="100" x2="389.9" y2="-0.4"/>
<line fill="none" stroke="#000000" stroke-miterlimit="10" x1="299.5" y1="100" x2="399.8" y2="-0.4"/>
<line fill="none" stroke="#000000" stroke-miterlimit="10" x1="299.5" y1="100" x2="399.8" y2="-0.4"/>
<line fill="none" stroke="#000000" stroke-miterlimit="10" x1="309.4" y1="100" x2="409.8" y2="-0.4"/>
<line fill="none" stroke="#000000" stroke-miterlimit="10" x1="309.4" y1="100" x2="409.8" y2="-0.4"/>
<line fill="none" stroke="#000000" stroke-miterlimit="10" x1="319.3" y1="100" x2="419.7" y2="-0.4"/>
<line fill="none" stroke="#000000" stroke-miterlimit="10" x1="319.9" y1="100" x2="420.2" y2="-0.4"/>
<line fill="none" stroke="#000000" stroke-miterlimit="10" x1="329.8" y1="100" x2="430.1" y2="-0.4"/>
<line fill="none" stroke="#000000" stroke-miterlimit="10" x1="329.8" y1="100" x2="430.1" y2="-0.4"/>
<line fill="none" stroke="#000000" stroke-miterlimit="10" x1="339.7" y1="100" x2="440.1" y2="-0.4"/>
<line fill="none" stroke="#000000" stroke-miterlimit="10" x1="339.7" y1="100" x2="440.1" y2="-0.4"/>
<line fill="none" stroke="#000000" stroke-miterlimit="10" x1="349.6" y1="100" x2="450" y2="-0.4"/>
<line fill="none" stroke="#000000" stroke-miterlimit="10" x1="349.6" y1="100" x2="450" y2="-0.4"/>
<line fill="none" stroke="#000000" stroke-miterlimit="10" x1="359.6" y1="100" x2="459.9" y2="-0.4"/>
<line fill="none" stroke="#000000" stroke-miterlimit="10" x1="359.6" y1="100" x2="459.9" y2="-0.4"/>
<line fill="none" stroke="#000000" stroke-miterlimit="10" x1="369.5" y1="100" x2="469.9" y2="-0.4"/>
<line fill="none" stroke="#000000" stroke-miterlimit="10" x1="369.5" y1="100" x2="469.9" y2="-0.4"/>
<line fill="none" stroke="#000000" stroke-miterlimit="10" x1="379.4" y1="100" x2="479.8" y2="-0.4"/>
<line fill="none" stroke="#000000" stroke-miterlimit="10" x1="379.4" y1="100" x2="479.8" y2="-0.4"/>
<line fill="none" stroke="#000000" stroke-miterlimit="10" x1="389.4" y1="100" x2="489.7" y2="-0.4"/>
<line fill="none" stroke="#000000" stroke-miterlimit="10" x1="389.4" y1="100" x2="489.7" y2="-0.4"/>
<line fill="none" stroke="#000000" stroke-miterlimit="10" x1="399.3" y1="100" x2="499.6" y2="-0.4"/>
<line fill="none" stroke="#000000" stroke-miterlimit="10" x1="399.8" y1="100" x2="500.2" y2="-0.4"/>
<line fill="none" stroke="#000000" stroke-miterlimit="10" x1="409.8" y1="100" x2="510.1" y2="-0.4"/>
<line fill="none" stroke="#000000" stroke-miterlimit="10" x1="409.8" y1="100" x2="510.1" y2="-0.4"/>
<line fill="none" stroke="#000000" stroke-miterlimit="10" x1="419.7" y1="100" x2="520" y2="-0.4"/>
<line fill="none" stroke="#000000" stroke-miterlimit="10" x1="419.7" y1="100" x2="520" y2="-0.4"/>
<line fill="none" stroke="#000000" stroke-miterlimit="10" x1="429.6" y1="100" x2="530" y2="-0.4"/>
<line fill="none" stroke="#000000" stroke-miterlimit="10" x1="429.6" y1="100" x2="530" y2="-0.4"/>
<line fill="none" stroke="#000000" stroke-miterlimit="10" x1="439.5" y1="100" x2="539.9" y2="-0.4"/>
<line fill="none" stroke="#000000" stroke-miterlimit="10" x1="439.5" y1="100" x2="539.9" y2="-0.4"/>
<line fill="none" stroke="#000000" stroke-miterlimit="10" x1="449.5" y1="100" x2="549.8" y2="-0.4"/>
<line fill="none" stroke="#000000" stroke-miterlimit="10" x1="449.5" y1="100" x2="549.8" y2="-0.4"/>
<line fill="none" stroke="#000000" stroke-miterlimit="10" x1="459.4" y1="100" x2="559.8" y2="-0.4"/>
<line fill="none" stroke="#000000" stroke-miterlimit="10" x1="459.4" y1="100" x2="559.8" y2="-0.4"/>
<line fill="none" stroke="#000000" stroke-miterlimit="10" x1="469.3" y1="100" x2="569.7" y2="-0.4"/>
<line fill="none" stroke="#000000" stroke-miterlimit="10" x1="469.3" y1="100" x2="569.7" y2="-0.4"/>
<line fill="none" stroke="#000000" stroke-miterlimit="10" x1="479.2" y1="100" x2="579.6" y2="-0.4"/>
<line fill="none" stroke="#000000" stroke-miterlimit="10" x1="479.8" y1="100" x2="580.1" y2="-0.4"/>
<line fill="none" stroke="#000000" stroke-miterlimit="10" x1="489.7" y1="100" x2="590.1" y2="-0.4"/>
<line fill="none" stroke="#000000" stroke-miterlimit="10" x1="489.7" y1="100" x2="590.1" y2="-0.4"/>
<line fill="none" stroke="#000000" stroke-miterlimit="10" x1="499.6" y1="100" x2="600" y2="-0.4"/>
<line fill="none" stroke="#000000" stroke-miterlimit="10" x1="499.6" y1="100" x2="600" y2="-0.4"/>
<line fill="none" stroke="#000000" stroke-miterlimit="10" x1="509.6" y1="100" x2="609.9" y2="-0.4"/>
<line fill="none" stroke="#000000" stroke-miterlimit="10" x1="509.6" y1="100" x2="609.9" y2="-0.4"/>
<line fill="none" stroke="#000000" stroke-miterlimit="10" x1="519.5" y1="100" x2="619.9" y2="-0.4"/>
<line fill="none" stroke="#000000" stroke-miterlimit="10" x1="519.5" y1="100" x2="619.9" y2="-0.4"/>
<line fill="none" stroke="#000000" stroke-miterlimit="10" x1="529.4" y1="100" x2="629.8" y2="-0.4"/>
<line fill="none" stroke="#000000" stroke-miterlimit="10" x1="529.4" y1="100" x2="629.8" y2="-0.4"/>
<line fill="none" stroke="#000000" stroke-miterlimit="10" x1="539.4" y1="100" x2="639.7" y2="-0.4"/>
<line fill="none" stroke="#000000" stroke-miterlimit="10" x1="539.4" y1="100" x2="639.7" y2="-0.4"/>
<line fill="none" stroke="#000000" stroke-miterlimit="10" x1="549.3" y1="100" x2="649.6" y2="-0.4"/>
<line fill="none" stroke="#000000" stroke-miterlimit="10" x1="549.3" y1="100" x2="649.6" y2="-0.4"/>
<line fill="none" stroke="#000000" stroke-miterlimit="10" x1="559.2" y1="100" x2="659.6" y2="-0.4"/>
<line fill="none" stroke="#000000" stroke-miterlimit="10" x1="559.8" y1="100" x2="660.1" y2="-0.4"/>
<line fill="none" stroke="#000000" stroke-miterlimit="10" x1="569.7" y1="100" x2="670" y2="-0.4"/>
<line fill="none" stroke="#000000" stroke-miterlimit="10" x1="569.7" y1="100" x2="670" y2="-0.4"/>
<line fill="none" stroke="#000000" stroke-miterlimit="10" x1="579.6" y1="100" x2="680" y2="-0.4"/>
<line fill="none" stroke="#000000" stroke-miterlimit="10" x1="579.6" y1="100" x2="680" y2="-0.4"/>
<line fill="none" stroke="#000000" stroke-miterlimit="10" x1="589.5" y1="100" x2="689.9" y2="-0.4"/>
<line fill="none" stroke="#000000" stroke-miterlimit="10" x1="589.5" y1="100" x2="689.9" y2="-0.4"/>
<line fill="none" stroke="#000000" stroke-miterlimit="10" x1="599.5" y1="100" x2="699.8" y2="-0.4"/>
<line fill="none" stroke="#000000" stroke-miterlimit="10" x1="599.5" y1="100" x2="699.8" y2="-0.4"/>
<line fill="none" stroke="#000000" stroke-miterlimit="10" x1="609.4" y1="100" x2="709.8" y2="-0.4"/>
<line fill="none" stroke="#000000" stroke-miterlimit="10" x1="609.4" y1="100" x2="709.8" y2="-0.4"/>
<line fill="none" stroke="#000000" stroke-miterlimit="10" x1="619.3" y1="100" x2="719.7" y2="-0.4"/>
<line fill="none" stroke="#000000" stroke-miterlimit="10" x1="619.3" y1="100" x2="719.7" y2="-0.4"/>
<line fill="none" stroke="#000000" stroke-miterlimit="10" x1="629.2" y1="100" x2="729.6" y2="-0.4"/>
<line fill="none" stroke="#000000" stroke-miterlimit="10" x1="629.2" y1="100" x2="729.6" y2="-0.4"/>
<line fill="none" stroke="#000000" stroke-miterlimit="10" x1="639.2" y1="100" x2="739.5" y2="-0.4"/>
<line fill="none" stroke="#000000" stroke-miterlimit="10" x1="639.7" y1="100" x2="740.1" y2="-0.4"/>
<line fill="none" stroke="#000000" stroke-miterlimit="10" x1="649.6" y1="100" x2="750" y2="-0.4"/>
<line fill="none" stroke="#000000" stroke-miterlimit="10" x1="649.6" y1="100" x2="750" y2="-0.4"/>
<line fill="none" stroke="#000000" stroke-miterlimit="10" x1="659.6" y1="100" x2="759.9" y2="-0.4"/>
<line fill="none" stroke="#000000" stroke-miterlimit="10" x1="659.6" y1="100" x2="759.9" y2="-0.4"/>
<line fill="none" stroke="#000000" stroke-miterlimit="10" x1="669.5" y1="100" x2="769.9" y2="-0.4"/>
<line fill="none" stroke="#000000" stroke-miterlimit="10" x1="669.5" y1="100" x2="769.9" y2="-0.4"/>
<line fill="none" stroke="#000000" stroke-miterlimit="10" x1="679.4" y1="100" x2="779.8" y2="-0.4"/>
<line fill="none" stroke="#000000" stroke-miterlimit="10" x1="679.4" y1="100" x2="779.8" y2="-0.4"/>
<line fill="none" stroke="#000000" stroke-miterlimit="10" x1="689.4" y1="100" x2="789.7" y2="-0.4"/>
<line fill="none" stroke="#000000" stroke-miterlimit="10" x1="689.4" y1="100" x2="789.7" y2="-0.4"/>
<line fill="none" stroke="#000000" stroke-miterlimit="10" x1="699.3" y1="100" x2="799.6" y2="-0.4"/>
<line fill="none" stroke="#000000" stroke-miterlimit="10" x1="699.3" y1="100" x2="799.6" y2="-0.4"/>
<line fill="none" stroke="#000000" stroke-miterlimit="10" x1="709.2" y1="100" x2="809.6" y2="-0.4"/>
<line fill="none" stroke="#000000" stroke-miterlimit="10" x1="709.2" y1="100" x2="809.6" y2="-0.4"/>
<line fill="none" stroke="#000000" stroke-miterlimit="10" x1="719.1" y1="100" x2="819.5" y2="-0.4"/>
<line fill="none" stroke="#000000" stroke-miterlimit="10" x1="719.7" y1="100" x2="820" y2="-0.4"/>
<line fill="none" stroke="#000000" stroke-miterlimit="10" x1="729.6" y1="100" x2="830" y2="-0.4"/>
<line fill="none" stroke="#000000" stroke-miterlimit="10" x1="729.6" y1="100" x2="830" y2="-0.4"/>
<line fill="none" stroke="#000000" stroke-miterlimit="10" x1="739.5" y1="100" x2="839.9" y2="-0.4"/>
<line fill="none" stroke="#000000" stroke-miterlimit="10" x1="739.5" y1="100" x2="839.9" y2="-0.4"/>
<line fill="none" stroke="#000000" stroke-miterlimit="10" x1="749.5" y1="100" x2="849.8" y2="-0.4"/>
<line fill="none" stroke="#000000" stroke-miterlimit="10" x1="749.5" y1="100" x2="849.8" y2="-0.4"/>
<line fill="none" stroke="#000000" stroke-miterlimit="10" x1="759.4" y1="100" x2="859.8" y2="-0.4"/>
<line fill="none" stroke="#000000" stroke-miterlimit="10" x1="759.4" y1="100" x2="859.8" y2="-0.4"/>
<line fill="none" stroke="#000000" stroke-miterlimit="10" x1="769.3" y1="100" x2="869.7" y2="-0.4"/>
<line fill="none" stroke="#000000" stroke-miterlimit="10" x1="769.3" y1="100" x2="869.7" y2="-0.4"/>
<line fill="none" stroke="#000000" stroke-miterlimit="10" x1="779.2" y1="100" x2="879.6" y2="-0.4"/>
<line fill="none" stroke="#000000" stroke-miterlimit="10" x1="779.2" y1="100" x2="879.6" y2="-0.4"/>
<line fill="none" stroke="#000000" stroke-miterlimit="10" x1="789.2" y1="100" x2="889.5" y2="-0.4"/>
<line fill="none" stroke="#000000" stroke-miterlimit="10" x1="789.2" y1="100" x2="889.5" y2="-0.4"/>
<line fill="none" stroke="#000000" stroke-miterlimit="10" x1="799.1" y1="100" x2="899.5" y2="-0.4"/>
<line fill="none" stroke="#000000" stroke-miterlimit="10" x1="799.6" y1="100" x2="900" y2="-0.4"/>
<line fill="none" stroke="#000000" stroke-miterlimit="10" x1="809.6" y1="100" x2="909.9" y2="-0.4"/>
<line fill="none" stroke="#000000" stroke-miterlimit="10" x1="809.6" y1="100" x2="909.9" y2="-0.4"/>
<line fill="none" stroke="#000000" stroke-miterlimit="10" x1="819.5" y1="100" x2="919.9" y2="-0.4"/>
<line fill="none" stroke="#000000" stroke-miterlimit="10" x1="819.5" y1="100" x2="919.9" y2="-0.4"/>
<line fill="none" stroke="#000000" stroke-miterlimit="10" x1="829.4" y1="100" x2="929.8" y2="-0.4"/>
<line fill="none" stroke="#000000" stroke-miterlimit="10" x1="829.4" y1="100" x2="929.8" y2="-0.4"/>
<line fill="none" stroke="#000000" stroke-miterlimit="10" x1="839.4" y1="100" x2="939.7" y2="-0.4"/>
<line fill="none" stroke="#000000" stroke-miterlimit="10" x1="839.4" y1="100" x2="939.7" y2="-0.4"/>
<line fill="none" stroke="#000000" stroke-miterlimit="10" x1="849.3" y1="100" x2="949.6" y2="-0.4"/>
<line fill="none" stroke="#000000" stroke-miterlimit="10" x1="849.3" y1="100" x2="949.6" y2="-0.4"/>
<line fill="none" stroke="#000000" stroke-miterlimit="10" x1="859.2" y1="100" x2="959.6" y2="-0.4"/>
<line fill="none" stroke="#000000" stroke-miterlimit="10" x1="859.2" y1="100" x2="959.6" y2="-0.4"/>
<line fill="none" stroke="#000000" stroke-miterlimit="10" x1="869.1" y1="100" x2="969.5" y2="-0.4"/>
<line fill="none" stroke="#000000" stroke-miterlimit="10" x1="869.1" y1="100" x2="969.5" y2="-0.4"/>
<line fill="none" stroke="#000000" stroke-miterlimit="10" x1="879.1" y1="100" x2="979.4" y2="-0.4"/>
<line fill="none" stroke="#000000" stroke-miterlimit="10" x1="879.6" y1="100" x2="980" y2="-0.4"/>
<line fill="none" stroke="#000000" stroke-miterlimit="10" x1="889.5" y1="100" x2="989.9" y2="-0.4"/>
<line fill="none" stroke="#000000" stroke-miterlimit="10" x1="889.5" y1="100" x2="989.9" y2="-0.4"/>
<line fill="none" stroke="#000000" stroke-miterlimit="10" x1="899.5" y1="100" x2="999.8" y2="-0.4"/>
<line fill="none" stroke="#000000" stroke-miterlimit="10" x1="899.5" y1="100" x2="999.8" y2="-0.4"/>
<line fill="none" stroke="#000000" stroke-miterlimit="10" x1="909.4" y1="100" x2="1009.8" y2="-0.4"/>
<line fill="none" stroke="#000000" stroke-miterlimit="10" x1="909.4" y1="100" x2="1009.8" y2="-0.4"/>
<line fill="none" stroke="#000000" stroke-miterlimit="10" x1="919.3" y1="100" x2="1019.7" y2="-0.4"/>
<line fill="none" stroke="#000000" stroke-miterlimit="10" x1="919.3" y1="100" x2="1019.7" y2="-0.4"/>
<line fill="none" stroke="#000000" stroke-miterlimit="10" x1="929.2" y1="100" x2="1029.6" y2="-0.4"/>
<line fill="none" stroke="#000000" stroke-miterlimit="10" x1="929.2" y1="100" x2="1029.6" y2="-0.4"/>
<line fill="none" stroke="#000000" stroke-miterlimit="10" x1="939.2" y1="100" x2="1039.5" y2="-0.4"/>
<line fill="none" stroke="#000000" stroke-miterlimit="10" x1="939.2" y1="100" x2="1039.5" y2="-0.4"/>
<line fill="none" stroke="#000000" stroke-miterlimit="10" x1="949.1" y1="100" x2="1049.5" y2="-0.4"/>
<line fill="none" stroke="#000000" stroke-miterlimit="10" x1="949.1" y1="100" x2="1049.5" y2="-0.4"/>
<line fill="none" stroke="#000000" stroke-miterlimit="10" x1="959" y1="100" x2="1059.4" y2="-0.4"/>
<line fill="none" stroke="#000000" stroke-miterlimit="10" x1="959.6" y1="100" x2="1059.9" y2="-0.4"/>
<line fill="none" stroke="#000000" stroke-miterlimit="10" x1="969.5" y1="100" x2="1069.9" y2="-0.4"/>
<line fill="none" stroke="#000000" stroke-miterlimit="10" x1="969.5" y1="100" x2="1069.9" y2="-0.4"/>
<line fill="none" stroke="#000000" stroke-miterlimit="10" x1="979.4" y1="100" x2="1079.8" y2="-0.4"/>
<line fill="none" stroke="#000000" stroke-miterlimit="10" x1="979.4" y1="100" x2="1079.8" y2="-0.4"/>
<line fill="none" stroke="#000000" stroke-miterlimit="10" x1="989.4" y1="100" x2="1089.7" y2="-0.4"/>
<line fill="none" stroke="#000000" stroke-miterlimit="10" x1="989.4" y1="100" x2="1089.7" y2="-0.4"/>
<line fill="none" stroke="#000000" stroke-miterlimit="10" x1="999.3" y1="100" x2="1099.6" y2="-0.4"/>
<line fill="none" stroke="#000000" stroke-miterlimit="10" x1="999.3" y1="100" x2="1099.6" y2="-0.4"/>
<line fill="none" stroke="#000000" stroke-miterlimit="10" x1="1009.2" y1="100" x2="1109.6" y2="-0.4"/>
<line fill="none" stroke="#000000" stroke-miterlimit="10" x1="1009.2" y1="100" x2="1109.6" y2="-0.4"/>
<line fill="none" stroke="#000000" stroke-miterlimit="10" x1="1019.1" y1="100" x2="1119.5" y2="-0.4"/>
<line fill="none" stroke="#000000" stroke-miterlimit="10" x1="1019.1" y1="100" x2="1119.5" y2="-0.4"/>
<line fill="none" stroke="#000000" stroke-miterlimit="10" x1="1029.1" y1="100" x2="1129.4" y2="-0.4"/>
<line fill="none" stroke="#000000" stroke-miterlimit="10" x1="1029.1" y1="100" x2="1129.4" y2="-0.4"/>
<line fill="none" stroke="#000000" stroke-miterlimit="10" x1="1039" y1="100" x2="1139.4" y2="-0.4"/>
<line fill="none" stroke="#000000" stroke-miterlimit="10" x1="1039.5" y1="100" x2="1139.9" y2="-0.4"/>
<line fill="none" stroke="#000000" stroke-miterlimit="10" x1="1049.5" y1="100" x2="1149.8" y2="-0.4"/>
<line fill="none" stroke="#000000" stroke-miterlimit="10" x1="1049.5" y1="100" x2="1149.8" y2="-0.4"/>
<line fill="none" stroke="#000000" stroke-miterlimit="10" x1="1059.4" y1="100" x2="1159.8" y2="-0.4"/>
<line fill="none" stroke="#000000" stroke-miterlimit="10" x1="1059.4" y1="100" x2="1159.8" y2="-0.4"/>
<line fill="none" stroke="#000000" stroke-miterlimit="10" x1="1069.3" y1="100" x2="1169.7" y2="-0.4"/>
<line fill="none" stroke="#000000" stroke-miterlimit="10" x1="1069.3" y1="100" x2="1169.7" y2="-0.4"/>
<line fill="none" stroke="#000000" stroke-miterlimit="10" x1="1079.2" y1="100" x2="1179.6" y2="-0.4"/>
<line fill="none" stroke="#000000" stroke-miterlimit="10" x1="1079.2" y1="100" x2="1179.6" y2="-0.4"/>
<line fill="none" stroke="#000000" stroke-miterlimit="10" x1="1089.2" y1="100" x2="1189.5" y2="-0.4"/>
<line fill="none" stroke="#000000" stroke-miterlimit="10" x1="1089.2" y1="100" x2="1189.5" y2="-0.4"/>
<line fill="none" stroke="#000000" stroke-miterlimit="10" x1="1099.1" y1="100" x2="1199.5" y2="-0.4"/>
<line fill="none" stroke="#000000" stroke-miterlimit="10" x1="1099.1" y1="100" x2="1199.5" y2="-0.4"/>
<line fill="none" stroke="#000000" stroke-miterlimit="10" x1="-170.4" y1="100" x2="-70" y2="-0.4"/>
<line fill="none" stroke="#000000" stroke-miterlimit="10" x1="-170.4" y1="100" x2="-70" y2="-0.4"/>
<line fill="none" stroke="#000000" stroke-miterlimit="10" x1="-160.5" y1="100" x2="-60.1" y2="-0.4"/>
<line fill="none" stroke="#000000" stroke-miterlimit="10" x1="-159.9" y1="100" x2="-59.6" y2="-0.4"/>
<line fill="none" stroke="#000000" stroke-miterlimit="10" x1="-150" y1="100" x2="-49.6" y2="-0.4"/>
<line fill="none" stroke="#000000" stroke-miterlimit="10" x1="-150" y1="100" x2="-49.6" y2="-0.4"/>
<line fill="none" stroke="#000000" stroke-miterlimit="10" x1="-140.1" y1="100" x2="-39.7" y2="-0.4"/>
<line fill="none" stroke="#000000" stroke-miterlimit="10" x1="-140.1" y1="100" x2="-39.7" y2="-0.4"/>
<line fill="none" stroke="#000000" stroke-miterlimit="10" x1="-130.1" y1="100" x2="-29.8" y2="-0.4"/>
<line fill="none" stroke="#000000" stroke-miterlimit="10" x1="-130.1" y1="100" x2="-29.8" y2="-0.4"/>
<line fill="none" stroke="#000000" stroke-miterlimit="10" x1="-120.2" y1="100" x2="-19.9" y2="-0.4"/>
<line fill="none" stroke="#000000" stroke-miterlimit="10" x1="-120.2" y1="100" x2="-19.9" y2="-0.4"/>
<line fill="none" stroke="#000000" stroke-miterlimit="10" x1="-110.3" y1="100" x2="-9.9" y2="-0.4"/>
<line fill="none" stroke="#000000" stroke-miterlimit="10" x1="-110.3" y1="100" x2="-9.9" y2="-0.4"/>
<line fill="none" stroke="#000000" stroke-miterlimit="10" x1="-100.4" y1="100" x2="0" y2="-0.4"/>
<line fill="none" stroke="#000000" stroke-miterlimit="10" x1="-100.4" y1="100" x2="0" y2="-0.4"/>
<line fill="none" stroke="#000000" stroke-miterlimit="10" x1="-90.4" y1="100" x2="9.9" y2="-0.4"/>
<line fill="none" stroke="#000000" stroke-miterlimit="10" x1="-90.4" y1="100" x2="9.9" y2="-0.4"/>
<line fill="none" stroke="#000000" stroke-miterlimit="10" x1="-80.5" y1="100" x2="19.9" y2="-0.4"/>
<line fill="none" stroke="#000000" stroke-miterlimit="10" x1="-80" y1="100" x2="20.4" y2="-0.4"/>
<line fill="none" stroke="#000000" stroke-miterlimit="10" x1="-70" y1="100" x2="30.3" y2="-0.4"/>
<line fill="none" stroke="#000000" stroke-miterlimit="10" x1="-70" y1="100" x2="30.3" y2="-0.4"/>
<line fill="none" stroke="#000000" stroke-miterlimit="10" x1="-60.1" y1="100" x2="40.2" y2="-0.4"/>
<line fill="none" stroke="#000000" stroke-miterlimit="10" x1="-60.1" y1="100" x2="40.2" y2="-0.4"/>
<line fill="none" stroke="#000000" stroke-miterlimit="10" x1="-50.2" y1="100" x2="50.2" y2="-0.4"/>
<line fill="none" stroke="#000000" stroke-miterlimit="10" x1="-50.2" y1="100" x2="50.2" y2="-0.4"/>
<line fill="none" stroke="#000000" stroke-miterlimit="10" x1="-40.2" y1="100" x2="60.1" y2="-0.4"/>
<line fill="none" stroke="#000000" stroke-miterlimit="10" x1="-40.2" y1="100" x2="60.1" y2="-0.4"/>
<line fill="none" stroke="#000000" stroke-miterlimit="10" x1="-30.3" y1="100" x2="70" y2="-0.4"/>
<line fill="none" stroke="#000000" stroke-miterlimit="10" x1="-30.3" y1="100" x2="70" y2="-0.4"/>
<line fill="none" stroke="#000000" stroke-miterlimit="10" x1="-20.4" y1="100" x2="80" y2="-0.4"/>
<line fill="none" stroke="#000000" stroke-miterlimit="10" x1="-20.4" y1="100" x2="80" y2="-0.4"/>
<line fill="none" stroke="#000000" stroke-miterlimit="10" x1="-10.5" y1="100" x2="89.9" y2="-0.4"/>
<line fill="none" stroke="#000000" stroke-miterlimit="10" x1="-10.5" y1="100" x2="89.9" y2="-0.4"/>
<line fill="none" stroke="#000000" stroke-miterlimit="10" x1="-0.5" y1="100" x2="99.8" y2="-0.4"/>
</svg>
